<svg xmlns="http://www.w3.org/2000/svg" height="24px" viewBox="0 -960 960 960" width="24px">
  <defs>
    <radialGradient id="gradOroMetalico" cx="50%" cy="50%" r="50%" fx="30%" fy="30%">
      <stop offset="0%" stop-color="#FFECA0"/> <!-- punto más brillante -->
      <stop offset="20%" stop-color="#FFD966"/> <!-- dorado claro -->
      <stop offset="50%" stop-color="#FFC700"/> <!-- dorado medio -->
      <stop offset="70%" stop-color="#FFB700"/> <!-- dorado intenso -->
      <stop offset="100%" stop-color="#E6A700"/> <!-- borde metálico oscuro -->
    </radialGradient>
  </defs>
  <path fill="url(#gradOroMetalico)" d="M480-80q-83 0-156-31.5T197-197q-54-54-85.5-127T80-480q0-83 31.5-156T197-763q54-54 127-85.5T480-880q83 0 156 31.5T763-763q54 54 85.5 127T880-480q0 83-31.5 156T763-197q-54 54-127 85.5T480-80Zm0-80q134 0 227-93t93-227q0-134-93-227t-227-93q-134 0-227 93t-93 227q0 134 93 227t227 93Zm0-320Z"/>
</svg>
