<svg xmlns="http://www.w3.org/2000/svg" height="24px" viewBox="0 -960 960 960" width="24px">
  <defs>
    <linearGradient id="gradOroFondoBlanco" x1="0%" y1="0%" x2="0%" y2="100%">
      <stop offset="0%" stop-color="#FFD966"/>   <!-- dorado claro, simula reflejo -->
      <stop offset="30%" stop-color="#FFC700"/>  <!-- dorado medio -->
      <stop offset="60%" stop-color="#FFB700"/>  <!-- dorado intenso -->
      <stop offset="100%" stop-color="#E6A700"/> <!-- dorado oscuro para borde -->
    </linearGradient>
  </defs>
  <path fill="url(#gradOroFondoBlanco)" d="M480-80q-83 0-156-31.5T197-197q-54-54-85.5-127T80-480q0-83 31.5-156T197-763q54-54 127-85.5T480-880q83 0 156 31.5T763-763q54 54 85.5 127T880-480q0 83-31.5 156T763-197q-54 54-127 85.5T480-80Zm0-80q134 0 227-93t93-227q0-134-93-227t-227-93q-134 0-227 93t-93 227q0 134 93 227t227 93Zm0-320Z"/>
</svg>
