<svg xmlns="http://www.w3.org/2000/svg" width="24px" height="24px" viewBox="0 0 64 80">
  <path d="M59,11H5a3,3,0,0,0-3,3V50a3,3,0,0,0,3,3H59a3,3,0,0,0,3-3V14A3,3,0,0,0,59,11ZM40.641,21.859c-2.763-1.145-6-.457-8.641,1.782-2.639-2.239-5.878-2.927-8.641-1.782a6.76,6.76,0,0,0-3.489,3.3L5.838,13H58.162L44.13,25.16A6.76,6.76,0,0,0,40.641,21.859ZM32,41.817C28.5,39.553,21,33.721,21,29a5.412,5.412,0,0,1,3.124-5.293,5.2,5.2,0,0,1,2-.391,7.481,7.481,0,0,1,5.171,2.391,1,1,0,0,0,1.414,0c2.168-2.168,4.916-2.935,7.169-2A5.412,5.412,0,0,1,43,29C43,33.721,35.5,39.553,32,41.817Zm-12.815-14.6A9.382,9.382,0,0,0,19,29a10.427,10.427,0,0,0,2.331,5.924L4,49.945V14.055Zm3.4,9.268a44.161,44.161,0,0,0,8.888,7.37,1,1,0,0,0,1.046,0,44.161,44.161,0,0,0,8.888-7.37L58.163,51H5.837Zm20.08-1.558A10.427,10.427,0,0,0,45,29a9.382,9.382,0,0,0-.185-1.786L60,14.055v35.89Z"/>
</svg>
