<?xml version="1.0" encoding="UTF-8" standalone="no"?>
<!-- Created with Inkscape (http://www.inkscape.org/) -->

<svg
   width="5.2916665mm"
   height="4.8550978mm"
   viewBox="0 0 5.2916665 4.8550978"
   version="1.1"
   id="svg1"
   xml:space="preserve"
   xmlns:inkscape="http://www.inkscape.org/namespaces/inkscape"
   xmlns:sodipodi="http://sodipodi.sourceforge.net/DTD/sodipodi-0.dtd"
   xmlns="http://www.w3.org/2000/svg"
   xmlns:svg="http://www.w3.org/2000/svg"><sodipodi:namedview
     id="namedview1"
     pagecolor="#ffffff"
     bordercolor="#000000"
     borderopacity="0.25"
     inkscape:showpageshadow="2"
     inkscape:pageopacity="0.0"
     inkscape:pagecheckerboard="0"
     inkscape:deskcolor="#d1d1d1"
     inkscape:document-units="mm"><inkscape:page
       x="0"
       y="0"
       width="5.2916665"
       height="4.8550978"
       id="page2"
       margin="0"
       bleed="0" /></sodipodi:namedview><defs
     id="defs1" /><g
     inkscape:label="Capa 1"
     inkscape:groupmode="layer"
     id="layer1"
     transform="translate(-102.12916,-146.0037)"><path
       d="m 104.775,150.8588 -0.38365,-0.34396 q -0.66807,-0.60192 -1.10463,-1.03849 -0.43656,-0.43656 -0.69453,-0.78382 -0.25797,-0.34727 -0.3605,-0.63831 -0.10252,-0.29104 -0.10252,-0.59531 0,-0.62177 0.41672,-1.03849 0.41671,-0.41672 1.03849,-0.41672 0.34395,0 0.65484,0.14552 0.31088,0.14552 0.53578,0.4101 0.2249,-0.26458 0.53578,-0.4101 0.31089,-0.14552 0.65485,-0.14552 0.62177,0 1.03848,0.41672 0.41672,0.41672 0.41672,1.03849 0,0.30427 -0.10252,0.59531 -0.10253,0.29104 -0.3605,0.63831 -0.25797,0.34726 -0.69453,0.78382 -0.43656,0.43657 -1.10463,1.03849 z m 0,-0.71437 q 0.635,-0.56886 1.0451,-0.97565 0.41011,-0.4068 0.64823,-0.70776 0.23813,-0.30097 0.33073,-0.53579 0.0926,-0.23481 0.0926,-0.46632 0,-0.39688 -0.26459,-0.66146 -0.26458,-0.26459 -0.66145,-0.26459 -0.31089,0 -0.57547,0.17529 -0.26459,0.17529 -0.36381,0.44649 h -0.5027 q -0.0992,-0.2712 -0.36381,-0.44649 -0.26458,-0.17529 -0.57546,-0.17529 -0.39688,0 -0.66146,0.26459 -0.26459,0.26458 -0.26459,0.66146 0,0.23151 0.0926,0.46632 0.0926,0.23482 0.33073,0.53579 0.23812,0.30096 0.64823,0.70776 0.4101,0.40679 1.0451,0.97565 z m 0,-1.80578 z"
       id="path1"
       style="stroke-width:0.00661458" /></g></svg>
